<?xml version="1.0" standalone="no"?>
<!DOCTYPE svg PUBLIC "-//W3C//DTD SVG 20010904//EN"
 "http://www.w3.org/TR/2001/REC-SVG-20010904/DTD/svg10.dtd">
<svg version="1.0" xmlns="http://www.w3.org/2000/svg"
 width="669.000000pt" height="674.000000pt" viewBox="0 0 669.000000 674.000000"
 preserveAspectRatio="xMidYMid meet">

<g transform="translate(0.000000,674.000000) scale(0.100000,-0.100000)"
fill="#000000" stroke="none">
<path d="M0 3370 l0 -3370 3345 0 3345 0 0 3370 0 3370 -3345 0 -3345 0 0
-3370z m3455 2659 c5 -14 1 -27 -9 -37 -15 -15 -17 -15 -32 0 -13 12 -14 20
-5 37 15 27 38 27 46 0z m-107 -148 c21 -13 10 -46 -16 -49 -17 -3 -22 1 -22
21 0 35 13 45 38 28z m192 -21 c0 -24 -26 -38 -42 -22 -16 16 -2 42 22 42 13
0 20 -7 20 -20z m-286 -152 c14 -22 -12 -52 -37 -42 -17 6 -23 44 -10 58 11
11 35 3 47 -16z m194 -6 c4 -29 -26 -42 -44 -18 -17 24 -6 48 20 44 13 -2 22
-12 24 -26z m177 -7 c0 -33 -21 -41 -38 -14 -14 22 -1 51 20 47 13 -2 18 -13
18 -33z m-111 -121 c20 -8 21 -48 1 -64 -20 -16 -35 -4 -35 29 0 38 7 45 34
35z m196 -28 c0 -22 -17 -46 -32 -46 -19 0 -27 37 -12 58 18 26 44 19 44 -12z
m-560 0 c0 -29 -19 -44 -30 -25 -9 14 5 49 20 49 6 0 10 -11 10 -24z m180 -16
c0 -20 -5 -30 -15 -30 -18 0 -30 24 -21 45 10 28 36 17 36 -15z m-252 -147
c-4 -33 -33 -43 -41 -14 -5 21 9 41 31 41 9 0 12 -9 10 -27z m532 -2 c0 -27
-19 -36 -37 -18 -18 18 -9 37 18 37 12 0 19 -7 19 -19z m175 -11 c-5 -8 -11
-8 -21 1 -12 10 -12 14 -2 20 16 10 33 -5 23 -21z m-545 11 c0 -6 -4 -13 -10
-16 -5 -3 -10 1 -10 9 0 9 5 16 10 16 6 0 10 -4 10 -9z m618 -123 c14 -14 16
-54 3 -62 -19 -12 -41 7 -41 33 0 40 15 52 38 29z m-873 -28 c0 -16 -6 -26
-18 -28 -19 -4 -32 20 -23 44 9 25 41 13 41 -16z m689 14 c20 -8 21 -50 2 -57
-20 -8 -39 18 -31 43 7 22 7 22 29 14z m-533 -47 c-8 -8 -11 -7 -11 4 0 20 13
34 18 19 3 -7 -1 -17 -7 -23z m-241 -113 c0 -17 -5 -24 -20 -24 -28 0 -38 30
-15 46 23 17 35 9 35 -22z m1045 -4 c0 -16 -6 -26 -18 -28 -19 -4 -32 20 -23
44 9 25 41 13 41 -16z m-870 0 c8 -14 -13 -50 -30 -50 -15 0 -30 35 -20 50 8
13 42 13 50 0z m709 -5 c3 -9 -4 -25 -15 -36 -16 -16 -23 -18 -35 -8 -15 12
-19 41 -7 52 12 13 51 7 57 -8z m-987 -131 c8 -21 -13 -42 -28 -27 -13 13 -5
43 11 43 6 0 13 -7 17 -16z m1069 -30 c8 -33 -9 -52 -31 -34 -15 13 -20 42 -8
53 14 15 33 6 39 -19z m-896 -9 c0 -18 -5 -25 -20 -25 -15 0 -20 7 -20 25 0
18 5 25 20 25 15 0 20 -7 20 -25z m-259 -95 c24 -13 25 -36 2 -48 -26 -13 -43
-4 -43 22 0 36 10 42 41 26z m1397 -35 c4 -16 -12 -34 -29 -35 -14 0 -19 33
-8 47 15 17 33 12 37 -12z m-1228 -20 c0 -18 -5 -25 -20 -25 -15 0 -20 7 -20
25 0 18 5 25 20 25 15 0 20 -7 20 -25z m1055 -5 c8 -26 -1 -40 -26 -40 -35 0
-23 55 13 59 4 1 9 -8 13 -19z m-1326 -94 c13 -16 4 -49 -13 -43 -14 4 -21 57
-8 57 5 0 15 -6 21 -14z m1569 -18 c17 -17 15 -48 -4 -55 -8 -3 -22 1 -31 9
-12 13 -13 19 -1 37 15 24 20 25 36 9z m-1392 -24 c8 -29 -7 -49 -30 -41 -19
8 -21 53 -3 60 22 10 27 7 33 -19z m1234 -19 c15 -18 6 -45 -13 -45 -8 0 -20
7 -27 15 -10 12 -10 18 0 30 16 19 24 19 40 0z m-1493 -81 c8 -22 -15 -44 -26
-25 -10 16 -4 41 10 41 5 0 12 -7 16 -16z m1748 -54 c0 -18 -6 -26 -23 -28
-27 -4 -40 22 -22 44 19 22 45 13 45 -16z m-1575 1 c0 -24 -25 -34 -40 -16
-15 18 -5 35 21 35 12 0 19 -7 19 -19z m1413 -33 c8 -12 7 -21 -2 -32 -22 -27
-58 4 -44 39 7 20 32 16 46 -7z m-1655 -86 c4 -28 -24 -40 -45 -19 -21 21 -9
49 19 45 15 -2 24 -11 26 -26z m1889 -13 c14 -14 5 -49 -13 -49 -18 0 -28 24
-20 45 6 18 18 19 33 4z m-1769 -31 c15 -15 -3 -48 -27 -48 -27 0 -36 31 -15
47 22 16 27 16 42 1z m-69 -132 c9 -11 8 -18 -5 -30 -22 -22 -38 -15 -42 17
-3 21 1 27 16 27 11 0 25 -6 31 -14z m899 -8 c20 -20 14 -66 -10 -79 -19 -10
-25 -8 -45 15 -22 25 -22 28 -7 51 18 27 43 32 62 13z m1022 -13 c0 -28 -24
-34 -34 -9 -8 20 1 34 20 34 8 0 14 -10 14 -25z m-1168 -32 c20 -18 25 -78 7
-88 -21 -13 -57 5 -69 35 -11 26 -10 33 5 50 22 24 33 25 57 3z m279 7 c41
-22 9 -107 -38 -98 -26 5 -31 77 -7 95 21 16 21 16 45 3z m749 -51 c0 -12 -7
-19 -19 -19 -27 0 -34 15 -21 40 9 17 14 19 26 9 8 -6 14 -20 14 -30z m-2042
-14 c4 -33 -12 -49 -37 -36 -20 11 -28 41 -14 55 14 14 48 1 51 -19z m936 -67
c23 -32 20 -55 -9 -74 -36 -24 -55 -12 -55 34 0 60 35 82 64 40z m444 6 c40
-28 23 -84 -25 -84 -31 0 -48 36 -34 73 12 31 27 34 59 11z m-1228 -14 c0 -13
-7 -20 -20 -20 -13 0 -20 7 -20 20 0 13 7 20 20 20 13 0 20 -7 20 -20z m2125
-5 c0 -25 -40 -33 -49 -10 -9 24 2 37 27 33 14 -2 22 -10 22 -23z m-170 -36
c0 -15 -7 -25 -18 -27 -22 -4 -33 24 -17 43 18 21 35 13 35 -16z m-2197 -37
c4 -28 -24 -40 -45 -19 -14 13 -14 19 -3 32 18 22 44 15 48 -13z m137 -78 c0
-10 -8 -20 -17 -22 -18 -3 -26 27 -11 42 12 11 28 0 28 -20z m890 -13 c0 -41
-25 -62 -49 -42 -33 27 -12 85 29 79 16 -2 20 -11 20 -37z m461 12 c13 -51
-35 -82 -69 -45 -27 30 -7 72 33 72 24 0 31 -5 36 -27z m934 0 c0 -25 -1 -26
-16 -11 -9 9 -13 21 -10 27 13 20 26 11 26 -16z m-153 -59 c-9 -9 -28 6 -21
18 4 6 10 6 17 -1 6 -6 8 -13 4 -17z m-2367 -9 c0 -18 -5 -25 -19 -25 -11 0
-23 5 -26 10 -11 18 3 40 25 40 15 0 20 -7 20 -25z m1494 -31 c39 -39 -6 -110
-54 -84 -15 8 -20 21 -20 49 0 21 3 41 7 44 12 13 51 7 67 -9z m-279 -34 c0
-28 -4 -35 -25 -40 -32 -9 -50 6 -50 40 0 35 8 42 45 38 27 -3 30 -6 30 -38z
m1393 -3 c3 -21 -1 -27 -17 -27 -21 0 -37 32 -26 50 12 20 40 5 43 -23z
m-1258 -9 c11 -12 20 -30 20 -39 0 -45 -70 -67 -90 -29 -9 17 -7 28 10 55 25
41 32 42 60 13z m-1220 -2 c0 -3 -4 -8 -10 -11 -5 -3 -10 -1 -10 4 0 6 5 11
10 11 6 0 10 -2 10 -4z m-201 -33 c12 -22 -4 -54 -23 -47 -21 8 -28 34 -15 50
15 19 26 18 38 -3z m2545 -9 c8 -22 -12 -56 -32 -52 -21 4 -29 48 -10 59 20
13 35 11 42 -7z m-1706 -46 c18 -18 15 -52 -8 -81 -16 -20 -19 -34 -14 -66 7
-46 -6 -58 -51 -47 -36 9 -43 50 -16 86 11 16 21 44 21 63 0 36 15 57 40 57 9
0 21 -5 28 -12z m152 -7 c24 -47 0 -88 -45 -77 -20 5 -25 12 -25 39 0 54 47
79 70 38z m-325 -31 c21 -41 19 -59 -9 -66 -44 -11 -61 -1 -64 35 -5 46 3 61
32 61 18 0 30 -9 41 -30z m470 -9 c0 -29 -5 -36 -28 -44 -38 -12 -50 1 -41 47
6 34 9 37 38 34 28 -3 31 -6 31 -37z m134 12 c19 -23 21 -55 4 -72 -10 -11
-75 -4 -84 10 -19 29 12 89 47 89 7 0 22 -12 33 -27z m1491 -18 c0 -18 -5 -25
-19 -25 -11 0 -21 6 -24 13 -7 20 4 37 24 37 14 0 19 -7 19 -25z m-2636 -7 c7
-12 6 -21 -4 -33 -12 -14 -15 -14 -28 -2 -9 9 -11 23 -7 36 7 24 23 24 39 -1z
m425 -52 c18 -33 9 -53 -31 -64 -27 -7 -34 -14 -39 -43 -7 -47 -16 -59 -43
-59 -58 0 -59 70 -1 94 31 13 34 17 28 49 -4 28 -1 37 17 50 27 19 50 10 69
-27z m-631 -4 c3 -16 -2 -22 -16 -22 -24 0 -35 23 -19 39 16 16 31 8 35 -17z
m2692 -7 c15 -18 6 -45 -15 -45 -18 0 -30 24 -21 45 7 19 20 19 36 0z m247
-71 c7 -19 -30 -59 -46 -50 -12 8 -15 49 -4 59 12 13 44 7 50 -9z m-2184 -24
c18 -21 35 -30 56 -30 34 0 58 -20 67 -57 8 -30 -15 -53 -52 -53 -20 0 -23 -6
-26 -42 -3 -38 -7 -45 -36 -57 -28 -13 -32 -19 -27 -41 8 -37 -21 -62 -60 -51
-18 4 -32 15 -34 26 -4 25 28 85 46 85 8 0 19 13 24 29 7 21 21 33 45 41 38
13 45 38 18 65 -27 26 -67 15 -83 -23 -9 -19 -25 -35 -39 -39 -15 -3 -28 -19
-39 -44 -19 -48 -52 -60 -95 -34 -17 9 -39 14 -52 11 -29 -7 -66 19 -66 48 0
51 56 63 89 19 l20 -28 38 20 c27 14 41 30 49 55 8 23 20 37 38 43 14 5 26 15
26 23 0 17 44 64 59 64 5 0 21 -13 34 -30z m-865 -61 c-2 -16 -10 -24 -23 -24
-26 0 -32 35 -9 52 22 16 37 4 32 -28z m1569 -28 c9 -35 -9 -56 -48 -56 -28 0
-35 5 -44 29 -8 25 -6 31 18 52 24 20 31 22 48 11 11 -6 22 -23 26 -36z m1331
11 c4 -28 -24 -40 -45 -19 -14 13 -14 19 -3 32 18 22 44 15 48 -13z m-2758
-53 c0 -25 -33 -22 -38 4 -2 12 3 17 17 17 15 0 21 -6 21 -21z m1181 1 c41
-22 6 -110 -39 -96 -31 10 -42 74 -17 93 23 16 30 16 56 3z m1789 -9 c0 -22
-13 -39 -25 -35 -16 7 -7 44 11 44 8 0 14 -4 14 -9z m-3202 -59 c3 -17 -2 -22
-17 -22 -16 0 -21 6 -21 26 0 33 33 30 38 -4z m3076 -29 c7 -16 -16 -43 -35
-43 -11 0 -19 28 -13 45 8 20 40 19 48 -2z m-1617 -48 c30 -21 18 -69 -19 -73
-30 -4 -44 23 -34 64 7 28 23 30 53 9z m-160 -3 c6 -4 13 -23 15 -42 3 -34 2
-35 -34 -38 -29 -2 -39 1 -48 18 -14 26 -5 57 18 63 27 7 36 7 49 -1z m-1174
-16 c6 -16 -11 -36 -30 -36 -13 0 -18 32 -6 43 11 12 31 8 36 -7z m3156 1 c8
-10 7 -17 -1 -25 -18 -18 -38 -14 -38 6 0 32 20 42 39 19z m-3404 -93 c0 -10
-8 -20 -17 -22 -18 -3 -26 27 -11 42 12 11 28 0 28 -20z m1775 6 c31 -31 24
-61 -18 -74 -45 -14 -71 43 -36 78 20 21 30 20 54 -4z m1498 -34 c-3 -24 -33
-34 -40 -14 -3 7 -1 24 3 37 8 20 12 21 25 11 8 -8 14 -23 12 -34z m-1956 -3
c22 -20 24 -51 3 -59 -17 -7 -21 -69 -5 -79 7 -4 8 -24 4 -51 -6 -40 -4 -44
20 -55 20 -10 26 -19 26 -45 0 -25 -5 -33 -24 -38 -14 -3 -32 -3 -40 0 -21 8
-30 47 -17 72 14 26 4 52 -20 52 -32 0 -41 33 -23 86 12 36 13 53 5 71 -23 50
29 84 71 46z m-312 -17 c28 -31 21 -54 -20 -62 -35 -8 -38 -28 -10 -64 24 -31
24 -38 3 -62 -23 -26 -57 -23 -73 6 -11 22 -10 30 9 67 15 28 20 51 16 70 -8
34 9 69 34 69 9 0 28 -11 41 -24z m-863 -2 c7 -20 -17 -37 -34 -23 -15 13 -6
39 13 39 8 0 17 -7 21 -16z m3351 -28 c-4 -25 -27 -28 -41 -4 -8 12 -7 21 2
32 18 21 43 2 39 -28z m-1918 19 c20 -24 8 -50 -24 -50 -36 0 -56 26 -37 49
17 20 45 21 61 1z m-1656 -57 c14 -23 -11 -53 -30 -37 -23 19 -15 64 10 56 5
-2 14 -10 20 -19z m3441 -53 c0 -11 -7 -21 -16 -23 -18 -3 -33 23 -23 39 10
17 39 5 39 -16z m-1741 -48 c-10 -36 -30 -50 -59 -43 -22 6 -26 11 -23 38 2
25 9 34 28 39 37 9 62 -7 54 -34z m-1586 0 c4 -21 -27 -35 -38 -17 -12 19 0
42 19 38 9 -2 17 -11 19 -21z m3532 9 c0 -17 -27 -29 -35 -16 -4 6 -3 15 0 20
9 15 35 12 35 -4z m-3744 -51 c8 -20 -13 -45 -32 -38 -8 3 -14 16 -14 29 0 17
6 24 20 24 11 0 23 -7 26 -15z m1946 -17 c34 -27 31 -68 -5 -81 -16 -6 -18
-14 -12 -62 l7 -55 -33 -14 c-30 -13 -36 -13 -51 1 -25 23 -22 56 8 84 21 20
25 31 21 61 -8 59 27 95 65 66z m-799 -36 c21 -19 22 -58 1 -66 -50 -19 -80 6
-70 59 6 31 10 35 29 29 12 -3 30 -13 40 -22z m678 -11 c23 -19 23 -21 9 -48
-13 -22 -23 -28 -50 -28 -32 0 -35 3 -38 33 -6 59 34 80 79 43z m1782 5 c6
-16 -2 -28 -14 -20 -12 7 -11 34 0 34 5 0 11 -6 14 -14z m-3705 -95 c5 -30 -8
-41 -35 -30 -22 8 -31 38 -16 53 15 15 48 1 51 -23z m1470 -24 c5 -44 -56 -69
-80 -33 -15 21 -8 55 14 70 19 13 25 14 43 2 11 -7 21 -25 23 -39z m206 12
c20 -15 26 -29 24 -48 -3 -23 -7 -26 -43 -26 -34 0 -41 4 -49 27 -8 22 -6 32
9 48 23 25 26 25 59 -1z m-459 -35 c25 -17 33 -48 15 -59 -5 -3 -10 -35 -10
-71 0 -70 -9 -81 -55 -70 -24 6 -25 9 -25 99 0 117 17 139 75 101z m2575 -30
c0 -31 -23 -28 -28 4 -2 15 2 22 12 22 11 0 16 -9 16 -26z m-1661 -28 c28 -30
24 -56 -11 -76 -21 -11 -32 -12 -45 -4 -25 15 -28 61 -7 85 23 25 36 24 63 -5z
m1878 8 c7 -19 -20 -49 -36 -40 -12 8 -15 39 -4 49 12 12 33 7 40 -9z m-2629
-30 c26 -18 29 -59 7 -88 -8 -11 -15 -35 -15 -53 0 -27 -5 -34 -26 -39 -17 -4
-31 -1 -42 10 -14 14 -15 20 -3 49 8 17 15 50 16 73 3 65 20 79 63 48z m-1483
-24 c0 -38 -39 -35 -43 3 -3 25 0 28 20 25 17 -2 23 -9 23 -28z m1662 -9 c15
-31 1 -61 -30 -61 -29 0 -43 10 -49 38 -13 50 55 70 79 23z m197 16 c13 -9 16
-20 11 -40 -6 -24 -12 -27 -46 -27 -38 0 -39 1 -39 33 0 19 3 37 7 40 11 11
48 8 67 -6z m504 -49 c7 -7 12 -24 12 -38 0 -33 -17 -50 -50 -50 -51 0 -66 44
-28 80 25 23 48 26 66 8z m927 -34 c20 -31 33 -30 47 1 8 19 19 25 43 25 57 0
73 -40 30 -80 -23 -22 -27 -23 -66 -10 -32 11 -45 11 -60 2 -34 -22 -67 -15
-84 18 -21 40 -12 68 23 72 37 5 48 0 67 -28z m698 2 c6 -16 -11 -36 -30 -36
-7 0 -13 11 -13 25 0 18 5 25 19 25 10 0 21 -6 24 -14z m-1306 -28 c35 -33 30
-57 -17 -75 -34 -13 -40 -21 -40 -44 0 -19 -8 -34 -25 -45 -24 -16 -27 -15
-45 1 -13 11 -19 29 -18 51 1 29 6 35 32 42 23 6 32 15 37 38 12 60 36 70 76
32z m1507 -1 c16 -25 -16 -56 -38 -37 -19 15 -20 32 -4 48 15 15 28 11 42 -11z
m-1060 -6 c10 -11 16 -31 14 -48 -2 -24 -8 -29 -38 -33 -25 -4 -36 -11 -38
-25 -11 -64 -102 -54 -102 11 0 20 9 29 45 44 25 11 45 24 45 29 0 14 29 41
44 41 7 0 21 -9 30 -19z m-3015 -10 c12 -21 5 -31 -21 -31 -11 0 -18 7 -18 18
0 35 23 43 39 13z m1605 -3 c20 -28 20 -33 0 -52 -20 -21 -70 -21 -78 0 -10
26 -7 62 7 67 28 12 57 6 71 -15z m194 0 c7 -7 12 -22 12 -35 0 -17 -7 -23
-35 -29 -46 -8 -65 0 -65 29 0 30 18 47 50 47 14 0 31 -5 38 -12z m-2004 -4
c18 -7 21 -39 5 -50 -16 -9 -43 21 -36 40 7 18 9 18 31 10z m3626 -35 c17 -31
-12 -71 -48 -67 -21 2 -28 9 -30 31 -5 43 4 57 37 57 20 0 34 -7 41 -21z
m-2255 -9 c12 -13 15 -27 11 -45 -6 -22 -11 -26 -39 -23 -25 2 -33 8 -35 26
-3 22 22 62 38 62 4 0 15 -9 25 -20z m1211 -43 c-11 -27 -18 -32 -47 -32 -31
0 -34 3 -37 32 -3 26 2 34 24 46 25 13 31 13 51 0 20 -14 21 -17 9 -46z m299
17 c10 -10 15 -29 13 -48 -3 -28 -6 -31 -38 -31 -31 0 -35 3 -38 27 -4 32 13
68 33 68 7 0 21 -7 30 -16z m-1341 -27 c13 -9 16 -20 11 -39 -9 -36 -30 -52
-59 -44 -41 10 -47 79 -8 89 30 8 38 7 56 -6z m2616 -2 c16 -19 9 -49 -12 -53
-20 -4 -40 30 -32 52 8 20 28 21 44 1z m-4042 -39 c-2 -13 -12 -22 -25 -24
-18 -3 -23 1 -23 21 0 30 6 36 31 30 14 -4 19 -13 17 -27z m3615 3 c18 -25 18
-28 2 -53 -16 -25 -16 -26 1 -32 78 -25 92 -40 74 -75 -11 -20 -47 -33 -77
-27 -14 3 -18 13 -18 53 0 47 -2 50 -29 55 -34 6 -51 46 -35 87 12 32 54 28
82 -8z m626 7 c9 -10 8 -16 -4 -26 -19 -16 -41 1 -32 24 8 20 21 20 36 2z
m-2494 -46 c0 -34 -1 -35 -43 -38 -50 -4 -63 15 -37 54 13 20 23 25 48 22 29
-3 32 -6 32 -38z m163 4 c4 -37 -18 -59 -52 -50 -25 6 -37 34 -29 67 5 16 12
19 42 17 32 -3 36 -6 39 -34z m993 3 c10 -38 2 -56 -27 -63 -38 -10 -54 2 -54
39 0 40 17 59 49 55 17 -2 27 -11 32 -31z m-3114 -21 c-4 -9 -13 -16 -21 -16
-20 0 -32 40 -15 51 18 11 44 -14 36 -35z m2704 34 c13 -7 19 -21 19 -44 0
-29 -5 -36 -29 -44 -20 -7 -32 -21 -41 -46 -13 -40 -39 -59 -67 -49 -47 17
-43 57 10 108 23 22 50 50 59 63 20 25 22 26 49 12z m-1261 -25 c10 -12 10
-21 2 -40 -9 -20 -19 -25 -46 -25 -42 0 -63 28 -46 60 13 24 71 28 90 5z m141
-81 c17 -33 2 -59 -36 -59 -34 0 -50 23 -41 58 10 43 54 43 77 1z m-1683 -58
c-4 -25 -36 -34 -44 -12 -8 21 13 46 32 39 8 -3 14 -15 12 -27z m162 18 c0 -8
-5 -12 -10 -9 -6 4 -8 11 -5 16 9 14 15 11 15 -7z m1324 0 c3 -9 6 -29 6 -45
0 -22 -6 -32 -25 -39 -38 -15 -55 -3 -55 39 0 20 5 42 12 49 17 17 55 15 62
-4z m570 0 c19 -18 20 -28 6 -55 -18 -34 -90 -17 -90 21 0 19 35 50 57 50 6 0
19 -7 27 -16z m159 -8 c16 -25 3 -60 -27 -67 -16 -5 -33 -6 -38 -3 -12 8 -10
68 4 82 13 13 48 6 61 -12z m643 -37 c10 -12 35 -29 54 -38 43 -20 50 -52 20
-93 -13 -18 -20 -40 -18 -60 4 -40 -20 -57 -56 -40 -30 13 -34 41 -10 77 10
15 14 34 10 49 -5 20 -13 25 -44 28 -37 3 -37 3 -40 51 l-3 47 34 0 c22 0 41
-8 53 -21z m-1231 -32 c14 -27 15 -37 6 -56 -17 -30 -60 -25 -80 10 -12 22
-12 28 4 52 23 36 48 34 70 -6z m2441 -14 c9 -35 -25 -68 -60 -59 -33 8 -44
47 -22 81 14 21 19 23 46 14 19 -7 32 -20 36 -36z m-2662 -45 c27 -43 -31 -99
-70 -68 -20 17 -17 40 8 67 25 26 45 27 62 1z m-1499 -19 c4 -12 2 -26 -4 -32
-15 -15 -46 16 -38 37 9 23 34 20 42 -5z m170 1 c0 -22 -29 -18 -33 3 -3 14 1
18 15 15 10 -2 18 -10 18 -18z m4435 10 c0 -5 -5 -10 -11 -10 -5 0 -7 5 -4 10
3 6 8 10 11 10 2 0 4 -4 4 -10z m-2440 -26 c6 -14 10 -29 10 -34 0 -13 -39
-23 -66 -16 -18 5 -24 13 -24 35 0 35 6 41 42 41 21 0 31 -6 38 -26z m158 14
c17 -17 15 -48 -5 -70 -21 -24 -38 -23 -57 3 -30 43 26 103 62 67z m2502 -9
c21 -37 -28 -69 -49 -32 -11 21 3 53 24 53 8 0 19 -9 25 -21z m-3180 -21 c27
-29 25 -62 -4 -82 -18 -11 -26 -27 -28 -53 -2 -26 -9 -41 -23 -48 -11 -5 -37
-20 -56 -32 -52 -33 -76 -30 -93 12 -11 25 -23 36 -48 43 -26 6 -34 14 -36 36
-7 59 44 75 85 26 30 -36 34 -36 90 -9 40 19 43 24 43 59 0 29 6 43 22 54 28
20 23 20 48 -6z m2564 -17 c10 -11 16 -30 14 -43 -5 -40 -98 -35 -98 6 0 17
38 56 54 56 7 0 21 -9 30 -19z m-2063 -83 c29 -33 25 -68 -11 -81 -16 -6 -30
-17 -30 -23 0 -21 51 -54 82 -54 37 0 83 43 72 68 -4 9 -8 30 -8 47 -1 23 5
31 26 39 40 14 62 -7 53 -53 -4 -20 -8 -54 -9 -76 -2 -22 -4 -48 -5 -57 0 -10
-7 -18 -15 -18 -8 0 -28 -11 -44 -25 -40 -33 -86 -33 -108 -1 -11 18 -26 26
-52 28 -33 3 -37 6 -40 34 -2 19 3 36 12 44 18 14 21 56 6 65 -17 10 -11 35
15 60 29 30 33 31 56 3z m-2237 -14 c8 -21 -1 -34 -24 -34 -20 0 -30 17 -22
38 6 17 39 15 46 -4z m181 -14 c0 -8 -8 -16 -17 -18 -13 -2 -18 3 -18 18 0 15
5 20 18 18 9 -2 17 -10 17 -18z m4801 8 c9 -15 -27 -41 -39 -29 -13 13 -1 41
17 41 8 0 18 -5 22 -12z m-1976 -22 c28 -31 21 -51 -26 -71 -35 -14 -36 -17
-30 -54 7 -45 -17 -75 -56 -69 -20 3 -23 9 -26 50 -3 42 -1 48 27 64 21 12 31
26 31 42 0 61 40 80 80 38z m1365 -2 c23 -23 15 -57 -16 -68 -40 -14 -59 -2
-59 38 0 46 42 63 75 30z m500 -124 c0 -29 -32 -41 -41 -16 -9 24 4 48 23 44
12 -2 18 -12 18 -28z m190 -5 c0 -13 -8 -21 -22 -23 -17 -3 -23 2 -23 16 0 10
3 22 7 26 13 13 38 1 38 -19z m-4983 -17 c-15 -15 -26 -4 -18 18 5 13 9 15 18
6 9 -9 9 -15 0 -24z m3018 11 c18 -32 4 -69 -24 -69 -25 0 -56 23 -56 41 0 46
60 67 80 28z m144 -22 c25 -39 -44 -78 -71 -41 -31 43 0 97 41 70 11 -7 25
-20 30 -29z m1194 14 c42 -36 19 -81 -42 -81 -20 0 -29 8 -40 33 -12 29 -12
33 8 49 27 22 45 22 74 -1z m-1011 -7 c25 -13 37 -14 46 -5 15 15 60 14 75 -1
40 -40 -16 -95 -65 -63 -21 14 -28 14 -70 0 -33 -11 -49 -13 -57 -5 -11 11
-18 69 -9 83 7 12 43 8 80 -9z m308 -34 c0 -33 -2 -35 -37 -38 l-38 -3 0 41 0
41 38 -3 c35 -3 37 -5 37 -38z m585 -2 c0 -42 -17 -68 -45 -68 -30 0 -49 32
-40 68 8 34 18 40 55 34 26 -4 30 -9 30 -34z m-427 10 c8 -31 -14 -72 -40 -76
-28 -4 -49 34 -39 72 5 22 12 26 40 26 26 0 35 -5 39 -22z m124 10 c28 -35 20
-98 -12 -98 -23 0 -63 22 -69 37 -8 19 33 73 55 73 9 0 21 -6 26 -12z m154
-19 c26 -37 19 -57 -25 -72 -35 -12 -56 6 -56 47 0 61 45 75 81 25z m-3993
-97 c2 -15 -2 -22 -12 -22 -11 0 -16 9 -16 26 0 31 23 28 28 -4z m189 -16
c-10 -25 -37 -19 -37 7 0 13 3 27 7 31 11 11 36 -21 30 -38z m-382 5 c-9 -16
-25 -3 -18 15 4 10 9 12 15 6 6 -6 7 -15 3 -21z m560 9 c8 -13 -14 -42 -26
-34 -5 3 -9 14 -9 25 0 20 24 26 35 9z m180 -18 c0 -18 -20 -15 -23 4 -3 10 1
15 10 12 7 -3 13 -10 13 -16z m189 9 c9 -14 -4 -41 -19 -41 -18 0 -28 17 -21
35 6 17 32 20 40 6z m176 -21 c0 -11 -6 -20 -13 -20 -19 0 -27 10 -20 26 8 21
33 17 33 -6z m180 -10 c0 -23 -4 -30 -20 -30 -25 0 -36 25 -20 45 21 25 40 18
40 -15z m185 -5 c0 -23 -5 -31 -22 -33 -26 -4 -41 31 -22 54 20 24 44 13 44
-21z m180 4 c10 -30 -18 -57 -39 -39 -19 15 -20 32 -4 48 18 18 36 14 43 -9z
m175 6 c16 -20 5 -45 -20 -45 -14 0 -20 7 -20 23 0 38 18 48 40 22z m185 -30
c0 -23 -4 -30 -20 -30 -15 0 -21 8 -23 33 -3 30 -1 33 20 30 18 -2 23 -9 23
-33z m172 14 c14 -14 6 -39 -12 -39 -18 0 -28 17 -21 35 6 18 18 19 33 4z
m721 -36 c11 -22 5 -43 -13 -43 -16 0 -26 25 -19 45 8 20 21 19 32 -2z m182 2
c13 -16 10 -47 -5 -52 -22 -6 -38 15 -31 41 7 29 18 33 36 11z m184 -18 c8
-13 7 -20 -4 -27 -8 -5 -19 -10 -23 -10 -12 0 -20 28 -13 46 7 19 25 15 40 -9z
m185 0 c8 -10 7 -18 -3 -32 -16 -23 -36 -12 -36 21 0 26 21 32 39 11z m177
-12 c4 -8 0 -22 -7 -31 -11 -13 -14 -13 -27 0 -17 17 -9 46 13 46 9 0 18 -7
21 -15z m182 -17 c-4 -27 -33 -36 -42 -13 -8 22 1 35 25 35 15 0 20 -6 17 -22z
m168 1 c3 -6 1 -16 -5 -22 -9 -9 -14 -8 -21 3 -9 15 -4 30 10 30 5 0 12 -5 16
-11z m192 -17 c3 -16 -2 -22 -17 -22 -24 0 -35 15 -27 36 9 23 40 13 44 -14z
m-4430 -5 c4 -22 -27 -35 -39 -16 -5 8 -9 20 -9 27 0 20 44 10 48 -11z m4612
-2 c0 -18 -5 -25 -20 -25 -15 0 -20 7 -20 25 0 18 5 25 20 25 15 0 20 -7 20
-25z m184 3 c16 -26 -16 -57 -38 -38 -17 13 -21 42 -9 54 11 11 35 3 47 -16z
m-4610 -5 c4 -9 2 -21 -3 -26 -15 -15 -41 0 -41 23 0 25 35 28 44 3z m190 1
c7 -19 -10 -44 -30 -44 -15 0 -28 35 -19 50 10 16 42 12 49 -6z m171 -19 c0
-11 -8 -21 -17 -23 -14 -3 -18 3 -18 23 0 20 4 26 18 23 9 -2 17 -12 17 -23z
m520 -20 c0 -28 -29 -25 -33 3 -3 19 0 23 15 20 10 -2 18 -12 18 -23z m182 9
c7 -19 -20 -49 -36 -40 -6 4 -11 18 -11 32 0 17 5 24 20 24 11 0 23 -7 27 -16z
m-352 -14 c-3 -5 -10 -10 -16 -10 -5 0 -9 5 -9 10 0 6 7 10 16 10 8 0 12 -4 9
-10z m865 -15 c0 -18 -5 -25 -19 -25 -11 0 -23 5 -26 10 -11 18 3 40 25 40 15
0 20 -7 20 -25z m188 -12 c3 -19 -1 -23 -22 -23 -21 0 -26 5 -26 26 0 21 4 25
23 22 14 -2 23 -11 25 -25z m342 -7 c0 -8 -7 -19 -15 -26 -28 -23 -60 21 -33
48 14 14 48 -2 48 -22z m-200 14 c0 -5 -4 -10 -10 -10 -5 0 -10 5 -10 10 0 6
5 10 10 10 6 0 10 -4 10 -10z m365 -20 c0 -16 -6 -26 -18 -28 -19 -4 -32 20
-23 44 9 25 41 13 41 -16z m173 -3 c3 -22 -1 -27 -18 -27 -26 0 -37 25 -20 45
18 22 34 13 38 -18z m167 -7 c0 -8 -8 -16 -17 -18 -13 -2 -18 3 -18 18 0 15 5
20 18 18 9 -2 17 -10 17 -18z m168 -5 c7 -16 -8 -29 -23 -20 -15 9 -12 35 4
35 8 0 16 -7 19 -15z m184 -11 c3 -8 1 -20 -6 -27 -14 -14 -47 15 -37 32 10
16 36 13 43 -5z m341 -18 c2 -10 -1 -23 -8 -30 -14 -14 -41 19 -33 40 8 20 37
13 41 -10z m176 1 c8 -12 7 -21 -6 -33 -20 -20 -38 -11 -38 20 0 39 23 46 44
13z m174 -11 c2 -10 -1 -23 -7 -29 -15 -15 -46 16 -37 38 8 21 40 15 44 -9z
m177 -6 c0 -29 -32 -41 -41 -16 -9 24 4 48 23 44 12 -2 18 -12 18 -28z m183
-3 c4 -22 -24 -33 -43 -17 -12 10 -13 16 -4 27 16 18 43 13 47 -10z m160 -12
c5 -22 -18 -37 -35 -23 -17 13 -17 35 0 41 19 8 32 2 35 -18z m172 -5 c0 -21
-24 -28 -35 -10 -8 14 3 30 21 30 8 0 14 -9 14 -20z m178 -8 c3 -18 -1 -22
-22 -22 -19 0 -26 5 -26 18 0 39 43 43 48 4z m530 -18 c4 -29 -23 -51 -43 -34
-18 15 -19 32 -3 48 18 18 42 10 46 -14z m362 11 c14 -17 7 -43 -15 -52 -26
-10 -40 12 -27 42 13 29 24 31 42 10z m-558 -37 c-16 -16 -37 4 -28 28 6 16 8
16 23 1 13 -13 15 -19 5 -29z m366 13 c3 -16 -1 -22 -10 -19 -7 3 -15 15 -16
27 -3 16 1 22 10 19 7 -3 15 -15 16 -27z"/>
</g>
</svg>
